<svg version="1.1" id="Layer_1" xmlns="http://www.w3.org/2000/svg" xmlns:xlink="http://www.w3.org/1999/xlink" x="0px" y="0px" width="204" height="85"
	 viewBox="0 0 204 85" enable-background="new 0 0 204 85" xml:space="preserve">
<g>
	<defs>
		<rect id="SVGID_1_" x="4.8" y="2.5" width="193.8" height="81"/>
	</defs>
	<clipPath id="SVGID_2_">
		<use xlink:href="#SVGID_1_"  overflow="visible"/>
	</clipPath>
	<path clip-path="url(#SVGID_2_)" fill="#267E44" d="M102,42.6h17.6c0,0,3.4,0.5,5.6-2.8c2.8-4.3,11.5-17,11.5-17s2.7-2.9,0.1-7.1
		c-2.3-3.6-8.7-12.7-8.7-12.7s1.5,2.9-0.7,6.2c-3.1,4.6-20.8,31.3-20.8,31.3s-1.4,2-3.1,0.9c-0.9-0.6-0.8-1.4,0-2.8
		c0.8-1.4,8.8-12.9,8.8-12.9s1.4-1.8,1.5-3.8c0-1.6,0.1-1.8-1-3.6c-1.3-2.1-11.1-15.7-11.1-15.7s-9.8,13.6-11.1,15.7
		c-1.2,1.9-1,2-1,3.6c0,2,1.4,3.8,1.4,3.8s8.1,11.5,8.8,12.9c0.8,1.4,0.9,2.2,0,2.8c-1.7,1.2-3.1-0.9-3.1-0.9S79,13.7,75.9,9.1
		C73.7,5.9,75.2,3,75.2,3s-6.4,9.1-8.7,12.7c-2.7,4.2,0.1,7.1,0.1,7.1s8.7,12.7,11.5,17c2.2,3.4,5.6,2.8,5.6,2.8H102z"/>
	<path clip-path="url(#SVGID_2_)" fill="#267E44" d="M44.4,70.5c0.2-1.5,1.1-2.8,2.8-2.8c1.8,0,2.5,1.3,2.5,2.8H44.4z M56.4,77.5
		c-1.9,1-4.3,1.9-6.4,1.9c-3.4,0-5.6-2.4-5.6-5.6h11.8c-0.1-5.9-3-9.3-9-9.3c-5.3,0-9.3,3.8-9.3,9.2c0,2.9,1,5.7,3.5,7.5
		c2.1,1.6,5,1.9,7.6,1.9c2,0,4.1-0.4,6-1.2L56.4,77.5z"/>
	<path clip-path="url(#SVGID_2_)" fill="#267E44" d="M57.8,82.1c2.1,0.5,4.3,0.9,6.4,0.9c4,0,9.7-1.1,9.7-6.2c0-1.9-1.3-3.4-2.9-4.5
		c-1.2-0.8-2.8-1.2-4.1-1.6c-0.9-0.3-2.2-0.6-2.2-1.8c0-1,1.5-1.2,2.2-1.2c1.7,0,3.4,0.5,4.9,1.5v-4c-1.9-0.5-3.9-0.7-5.9-0.7
		c-2,0-4,0.2-5.8,1.2c-1.8,1-2.8,2.5-2.8,4.6c0,5.1,9.1,5.3,9.1,7.8c0,1.4-1.6,1.7-2.7,1.7c-2.4,0-4.7-0.9-6.7-2.1L57.8,82.1z"/>
	<path clip-path="url(#SVGID_2_)" fill="#267E44" d="M81.6,68.5h1.1c1.4,0,2.2-0.2,3.1,0.8h0.1v-4.4h-4.3V64c0-1.6-0.2-3.5,2-3.5
		c0.6,0,1.1,0.3,1.6,0.6l2.5-3.9c-1.3-0.5-2.8-0.5-4.6-0.5c-2.2,0-4.1,0.3-5.9,1.8C75.3,60.2,75,62,75,64.3v0.5l-2.5,3.7H75v9.7
		c0,1.8,0.1,2.9-1.3,4.1v0.1h9.2v-0.1c-1.4-1.2-1.3-2.3-1.3-4.1V68.5z"/>
	<path clip-path="url(#SVGID_2_)" fill="#267E44" d="M112.2,64.4h-0.1c-0.7,0.4-1.6,0.6-2.4,0.6h-5.3v0.1c1.4,1.2,1.3,2.3,1.3,4.1
		v9.1c0,1.8,0.1,2.9-1.3,4.1v0.1h9.2v-0.1c-1.4-1.2-1.3-2.3-1.3-4.1v-5.7c0-1-0.1-1.6,0.5-2.3c0.8-0.9,1.9-1.3,3-1.3
		c0.6,0,1.3,0.2,2,0.3v-4.6l-1.4-0.1c-1.9,0-3.5,1-4.1,2.7V64.4z"/>
	<path clip-path="url(#SVGID_2_)" fill="#267E44" d="M126.6,64.4h-0.1c-0.8,0.4-1.6,0.6-2.5,0.6h-5.3v0.1c1.4,1.2,1.3,2.3,1.3,4.1
		v9.1c0,1.8,0.1,2.9-1.3,4.1v0.1h9.2v-0.1c-1.4-1.2-1.3-2.3-1.3-4.1v-5.7c0-1.6-0.3-4.1,2-4.1c2.3,0,2.1,2.5,2.1,4.1v5.7
		c0,1.8,0.1,2.9-1.3,4.1v0.1h9.2v-0.1c-1.4-1.2-1.3-2.3-1.3-4.1V72c0-1.4-0.1-3.6,2.1-3.6c2.2,0,2,2.1,2,3.6v6.3
		c0,1.8,0.1,2.9-1.3,4.1v0.1h9.2v-0.1c-1.4-1.2-1.3-2.3-1.3-4.1v-7.6c0-2-0.3-3.4-1.9-4.7c-1.3-1-3-1.4-4.6-1.4
		c-2.1,0-4.1,0.6-5.6,2.2c-1.2-1.4-2.7-2.2-4.6-2.2c-1.9,0-3.5,0.7-4.6,2.2V64.4z"/>
	<path clip-path="url(#SVGID_2_)" fill="#267E44" d="M155.8,70.5c0.2-1.5,1.1-2.8,2.8-2.8c1.8,0,2.5,1.3,2.5,2.8H155.8z M167.8,77.5
		c-1.9,1-4.3,1.9-6.4,1.9c-3.4,0-5.6-2.4-5.6-5.6h11.8c-0.1-5.9-3-9.3-9-9.3c-5.3,0-9.3,3.8-9.3,9.2c0,2.9,1,5.7,3.5,7.5
		c2.1,1.6,5,1.9,7.6,1.9c2,0,4.1-0.4,6-1.2L167.8,77.5z"/>
	<path clip-path="url(#SVGID_2_)" fill="#267E44" d="M175.6,64.4h-0.1c-0.7,0.4-1.6,0.6-2.4,0.6h-5.3v0.1c1.4,1.2,1.3,2.3,1.3,4.1
		v9.1c0,1.8,0.1,2.9-1.3,4.1v0.1h9.2v-0.1c-1.4-1.2-1.3-2.3-1.3-4.1v-5.7c0-1-0.1-1.6,0.5-2.3c0.8-0.9,1.9-1.3,3-1.3
		c0.6,0,1.3,0.2,2,0.3v-4.6l-1.4-0.1c-1.9,0-3.5,1-4.1,2.7V64.4z"/>
	<path clip-path="url(#SVGID_2_)" fill="#267E44" d="M182.4,82.1c2.1,0.5,4.3,0.9,6.4,0.9c4,0,9.7-1.1,9.7-6.2
		c0-1.9-1.3-3.4-2.9-4.5c-1.2-0.8-2.8-1.2-4.1-1.6c-0.9-0.3-2.2-0.6-2.2-1.8c0-1,1.5-1.2,2.2-1.2c1.7,0,3.4,0.5,4.9,1.5v-4
		c-1.9-0.5-3.9-0.7-5.9-0.7c-2,0-4,0.2-5.8,1.2c-1.7,1-2.8,2.5-2.8,4.6c0,5.1,9.1,5.3,9.1,7.8c0,1.4-1.6,1.7-2.7,1.7
		c-2.4,0-4.7-0.9-6.7-2.1L182.4,82.1z"/>
	<path clip-path="url(#SVGID_2_)" fill="#267E44" d="M23,67.8c0,0,5.4,15.7,5.5,15.7h4.2l8.1-26v-0.1h-6.4v0.1
		c0.7,0.8,1.3,1.7,1.3,2.9c0,1-0.4,2.1-0.6,3l-3.2,11.3h-0.1L28,62.3c-0.4-1.4-0.9-2.7-0.9-4.1c0-0.2,0.1-0.5,0.2-0.6v-0.1h-8v0.1
		c0.9,0.7,1.7,2.8,1.7,3.9c0,0.8-0.4,2.1-0.6,2.9l-2.7,10.4h-0.1L13,57.5v0H4.8v0.1c1.4,1.1,2,2.4,2.5,4.1l4.1,14.2
		c0.8,2.6,2.5,7.4,2.5,7.5c0,0.1,3.8-0.2,5.2,0L23,67.8z"/>
	<path clip-path="url(#SVGID_2_)" fill="#267E44" d="M95,79.9c-0.7,0-2.1-0.1-2.3-0.2c-1-0.2-1.7-1.3-1.7-2.7c0-1.3,1.2-1.8,2.2-2.3
		l1.2-0.6v1.3C94.3,77.2,94.3,78.6,95,79.9 M98,82.4c1,0.4,2,0.5,3.1,0.5l1.5-0.1l1.6-3.3c-3.3-0.1-3.2-2.2-3.2-4.7v-3
		c0-2.2-0.2-4.4-2.1-5.9c-1.5-1.1-3.5-1.4-5.3-1.4c-1.6,0-3.2,0.1-4.8,0.5l-1.8,4.3c1.4-0.7,3.2-1.3,4.8-1.3c1,0,2.4,0.4,2.4,1.6
		c0,3.2-10.5,0.9-10.5,7.9c0,1.8,1,3.5,2.5,4.5c1.1,0.7,2.8,0.9,4.1,0.9L98,82.4z"/>
</g>
</svg>
